<?xml version="1.0" encoding="utf-8"?>
<!-- Generator: Adobe Illustrator 24.2.1, SVG Export Plug-In . SVG Version: 6.00 Build 0)  -->
<svg version="1.1" id="Layer_1" xmlns="http://www.w3.org/2000/svg" xmlns:xlink="http://www.w3.org/1999/xlink" x="0px" y="0px"
	 viewBox="0 0 1920 711" style="enable-background:new 0 0 1920 711;" xml:space="preserve">
<style type="text/css">
	.st0{fill:#63AACA;}
	.st1{fill:#CE363E;}
	.st2{fill:#F2F2F2;}
	.st3{fill:#B6CDD3;}
	.st4{fill:#1A6691;}
	.st5{fill:#AAC6CE;}
	.st6{fill:#1A6484;}
	.st7{fill:#195E7C;}
	.st8{fill:#C6DDE5;}
	.st9{fill:none;}
	.st10{fill:#FFFFFF;}
</style>
<rect class="st0" width="1920" height="652"/>
<g>
</g>
<path class="st1" d="M898,131"/>
<g>
	<path class="st2" d="M0,224.34c134.29-11.24,330.14-6.97,537,85.57c138.32,61.88,224.23,137.57,264,168.97
		c166.03,131.06,477.7,239.72,1119,119.14V1080H0"/>
</g>
<g>
	<polygon class="st3" points="327.69,69.41 273,263.45 382.39,263.45 	"/>
	<polyline class="st4" points="327.93,143.58 318.59,280.69 336.68,280.69 	"/>
</g>
<g>
</g>
<g>
	<polygon class="st5" points="173.39,15.69 100.39,274.69 246.39,274.69 	"/>
	<polyline class="st6" points="173.7,114.69 161.23,297.69 185.39,297.69 	"/>
</g>
<g>
	<polygon class="st3" points="56.99,86.82 1.18,284.82 112.8,284.82 	"/>
	<polyline class="st7" points="57.23,162.27 47.7,302.17 66.16,302.17 	"/>
</g>
<g>
	<polygon class="st8" points="246.69,119.5 184,341.93 309.39,341.93 	"/>
	<polyline class="st4" points="246.96,204.53 236.25,361.69 257,361.69 	"/>
</g>
<g>
	<polygon class="st8" points="388,72 315,331 461,331 	"/>
	<polyline class="st4" points="388.31,171 375.85,354 400,354 	"/>
</g>
<g>
	<polygon class="st3" points="354.19,196.34 298.39,394.34 410,394.34 	"/>
	<polyline class="st7" points="354.43,271.79 344.9,411.69 363.37,411.69 	"/>
</g>
<g>
	<polygon class="st8" points="99.19,146.44 37,367.09 161.39,367.09 	"/>
	<polyline class="st4" points="99.46,230.78 88.84,386.69 109.42,386.69 	"/>
</g>
<g>
	<polygon class="st3" points="464.59,214.53 429.18,340.16 500,340.16 	"/>
	<polyline class="st7" points="464.74,262.4 458.69,351.17 470.41,351.17 	"/>
</g>
<g>
	<polygon class="st3" points="230.39,357.07 194.98,482.7 265.8,482.7 	"/>
	<polyline class="st7" points="230.54,404.94 224.49,493.7 236.21,493.7 	"/>
</g>
<g>
	<polygon class="st3" points="523.39,259.71 467.58,457.71 579.19,457.71 	"/>
	<polyline class="st7" points="523.62,335.16 514.09,475.06 532.56,475.06 	"/>
</g>
<g>
	<g>
		<rect x="880.27" y="235.05" class="st9" width="986.08" height="119.02"/>
		<path class="st4" d="M969.67,240.92v54.28c-0.92,14.03-13,26.11-28.18,26.11h-0.92c-9.2,0-17.14-3.68-22.2-11.04l5.98-9.09
			c4.14,5.06,8.86,9.09,16.22,9.09c10,0,18.06-7.02,18.06-17.14v-52.21H969.67z"/>
		<path class="st4" d="M1054.43,280.82c0,22.2-16.91,40.37-39.22,40.37c-21.16,0-38.18-18.17-38.18-40.37
			c0-22.08,17.02-40.14,38.18-40.14C1037.52,240.69,1054.43,258.74,1054.43,280.82z M1043.39,280.82
			c0-15.99-12.08-28.98-28.18-28.98c-15.07,0-27.14,13-27.14,28.98c0,16.22,12.08,29.33,27.14,29.33
			C1031.31,310.15,1043.39,297.04,1043.39,280.82z"/>
		<path class="st4" d="M1123.65,240.8v80.5H1111l-35.31-60.84v60.84h-10.81v-80.5h12.77l35.42,62.33V240.8H1123.65z"/>
		<path class="st4" d="M1148.38,308.65l-5.64,12.65h-12.19l34.85-80.85l34.96,80.85h-12.54l-5.41-12.65H1148.38z M1165.4,270.13
			l-12.19,28.06h24.38L1165.4,270.13z"/>
		<path class="st4" d="M1248.78,240.69v10.7l-27.03-0.12l0.23,70.15h-11.39l0.12-70.15h-26.57v-10.58H1248.78z"/>
		<path class="st4" d="M1313.06,240.8v80.39h-11.16v-33.58h-36.69v33.58h-11.16V240.8h11.16v36.69h36.69V240.8H1313.06z"/>
		<path class="st4" d="M1337.44,308.65l-5.63,12.65h-12.19l34.85-80.85l34.96,80.85h-12.54l-5.41-12.65H1337.44z M1354.46,270.13
			l-12.19,28.06h24.38L1354.46,270.13z"/>
		<path class="st4" d="M1454.97,240.8v80.5h-12.65l-35.31-60.84v60.84h-10.81v-80.5h12.77l35.42,62.33V240.8H1454.97z"/>
		<path class="st4" d="M1522.01,321.07c-10.01,0-19.21-4.72-24.15-11.5v-0.23l4.6-7.82c3.56,5.18,10.46,9.2,19.67,9.78h2.99
			c7.94,0,14.49-5.87,14.49-13.8s-6.21-11.16-14.49-12.42c-1.72-0.46-3.22-0.46-5.4-0.81c-11.39-2.19-21.62-8.86-21.62-20.93
			s9.78-22.2,21.62-22.2h1.72c7.94,0,16.45,3.45,20.7,8.86l-5.18,9.55c-4.49-4.95-8.74-7.71-15.53-8.05h-1.72
			c-6.1,0-11.16,5.52-11.16,11.85c0,6.1,4.26,9.43,11.16,10.35c2.88,0.35,4.83,0.46,5.63,0.58c13.69,1.84,24.04,9.66,24.04,23.23
			c0,13.46-10.93,23.23-24.27,23.58H1522.01z"/>
		<path class="st4" d="M1619.42,240.8v80.5h-12.65l-35.31-60.84v60.84h-10.81v-80.5h12.77l35.42,62.33V240.8H1619.42z"/>
		<path class="st4" d="M1706.47,280.82c0,22.2-16.91,40.37-39.22,40.37c-21.16,0-38.18-18.17-38.18-40.37
			c0-22.08,17.02-40.14,38.18-40.14C1689.57,240.69,1706.47,258.74,1706.47,280.82z M1695.43,280.82
			c0-15.99-12.08-28.98-28.18-28.98c-15.07,0-27.14,13-27.14,28.98c0,16.22,12.08,29.33,27.14,29.33
			C1683.36,310.15,1695.43,297.04,1695.43,280.82z"/>
		<path class="st4" d="M1792.84,321.42l-20.93-52.33l-21.97,52.33l-33.47-80.62h11.5l21.97,51.29l21.97-51.29l20.93,51.29
			l22.08-51.29h12.54L1792.84,321.42z"/>
	</g>
	<g>
		<g>
			<rect x="873.25" y="232.01" class="st9" width="987.02" height="119.02"/>
			<path class="st2" d="M963.12,237.87v54.28c-0.92,14.03-13,26.11-28.18,26.11h-0.92c-9.2,0-17.14-3.68-22.2-11.04l5.98-9.09
				c4.14,5.06,8.86,9.09,16.22,9.09c10.01,0,18.06-7.02,18.06-17.14v-52.21H963.12z"/>
			<path class="st2" d="M1047.88,277.78c0,22.2-16.91,40.37-39.22,40.37c-21.16,0-38.18-18.17-38.18-40.37
				c0-22.08,17.02-40.14,38.18-40.14C1030.97,237.64,1047.88,255.7,1047.88,277.78z M1036.83,277.78
				c0-15.99-12.08-28.98-28.18-28.98c-15.07,0-27.14,13-27.14,28.98c0,16.22,12.08,29.33,27.14,29.33
				C1024.76,307.1,1036.83,293.99,1036.83,277.78z"/>
			<path class="st2" d="M1117.1,237.76v80.5h-12.65l-35.31-60.84v60.84h-10.81v-80.5h12.77l35.42,62.33v-62.33H1117.1z"/>
			<path class="st2" d="M1141.83,305.61l-5.64,12.65H1124l34.85-80.85l34.96,80.85h-12.54l-5.41-12.65H1141.83z M1158.85,267.08
				l-12.19,28.06h24.38L1158.85,267.08z"/>
			<path class="st2" d="M1242.22,237.64v10.7l-27.03-0.12l0.23,70.15h-11.39l0.12-70.15h-26.57v-10.58H1242.22z"/>
			<path class="st2" d="M1306.51,237.76v80.39h-11.16v-33.58h-36.69v33.58h-11.16v-80.39h11.16v36.69h36.69v-36.69H1306.51z"/>
			<path class="st2" d="M1330.89,305.61l-5.64,12.65h-12.19l34.85-80.85l34.96,80.85h-12.54l-5.41-12.65H1330.89z M1347.91,267.08
				l-12.19,28.06h24.38L1347.91,267.08z"/>
			<path class="st2" d="M1448.42,237.76v80.5h-12.65l-35.31-60.84v60.84h-10.81v-80.5h12.77l35.42,62.33v-62.33H1448.42z"/>
			<path class="st2" d="M1515.46,318.03c-10,0-19.21-4.72-24.15-11.5v-0.23l4.6-7.82c3.57,5.18,10.47,9.2,19.67,9.78h2.99
				c7.94,0,14.49-5.87,14.49-13.8s-6.21-11.16-14.49-12.42c-1.73-0.46-3.22-0.46-5.41-0.81c-11.39-2.19-21.62-8.86-21.62-20.93
				s9.78-22.2,21.62-22.2h1.72c7.94,0,16.45,3.45,20.7,8.86l-5.17,9.55c-4.49-4.95-8.74-7.71-15.53-8.05h-1.72
				c-6.1,0-11.16,5.52-11.16,11.85c0,6.1,4.25,9.43,11.16,10.35c2.88,0.35,4.83,0.46,5.64,0.58c13.69,1.84,24.04,9.66,24.04,23.23
				c0,13.46-10.93,23.23-24.27,23.58H1515.46z"/>
			<path class="st2" d="M1612.87,237.76v80.5h-12.65l-35.31-60.84v60.84h-10.81v-80.5h12.77l35.42,62.33v-62.33H1612.87z"/>
			<path class="st2" d="M1699.92,277.78c0,22.2-16.91,40.37-39.22,40.37c-21.16,0-38.18-18.17-38.18-40.37
				c0-22.08,17.02-40.14,38.18-40.14C1683.02,237.64,1699.92,255.7,1699.92,277.78z M1688.88,277.78
				c0-15.99-12.08-28.98-28.18-28.98c-15.07,0-27.14,13-27.14,28.98c0,16.22,12.08,29.33,27.14,29.33
				C1676.8,307.1,1688.88,293.99,1688.88,277.78z"/>
			<path class="st2" d="M1786.29,318.38l-20.93-52.33l-21.97,52.33l-33.47-80.62h11.5l21.97,51.29l21.97-51.29l20.93,51.29
				l22.08-51.29h12.54L1786.29,318.38z"/>
		</g>
	</g>
</g>
<g>
	<path class="st10" d="M1069.39,431.25l1.73-2.25c4.5,6.97,14.77,6.97,14.77,6.97c7.27,0,12.15-5.17,12.15-12.15
		c0-11.25-13.35-11.17-15.9-11.77c-4.8-0.75-12.97-3.23-12.97-12.3c0-7.35,6.08-13.57,14.4-13.57c4.5,0,9.15,1.72,12,4.42l-1.5,2.55
		c-3.07-2.77-6.3-3.97-10.42-4.2c-6.83,0-11.63,4.95-11.63,10.8c0,5.32,4.73,8.92,10.42,9.52c8.1,0.82,18.52,3.9,18.52,14.92
		c0,8.02-6.53,14.32-15.07,14.55C1085.89,438.75,1074.42,438.67,1069.39,431.25z"/>
	<path class="st10" d="M1142.52,419.77c0,10.5-8.32,19.05-18.45,19.05c-10.2,0-18.52-8.55-18.52-19.05s8.33-19.05,18.52-19.05
		C1134.19,400.72,1142.52,409.27,1142.52,419.77z M1139.74,419.77c0-8.85-7.05-16.05-15.67-16.05c-8.7,0-15.75,7.2-15.75,16.05
		s7.05,16.05,15.75,16.05C1132.69,435.82,1139.74,428.62,1139.74,419.77z"/>
	<path class="st10" d="M1169.14,403.8h-13.13v34.95h-2.77V403.8h-6.15v-2.55h6.15v-0.15c0-9.6,6.9-17.47,15.9-18.67v2.85
		c-6.67,1.05-13.13,6.52-13.13,15.75v0.23h13.13V403.8z"/>
	<path class="st10" d="M1189.09,404.77h-9.3v34.05h-3v-34.05h-9.38v-3.07h9.38v-15.67h2.92l0.07,15.67h9.3V404.77z"/>
	<path class="st10" d="M1220.44,410.25l-11.92,28.57l-15.6-37.8h2.63l13.05,30.82l11.85-27.97l11.85,27.97l13.12-30.82h2.55
		l-15.67,37.8L1220.44,410.25z"/>
	<path class="st10" d="M1281.12,438.75v-7.35l-3.9,3.22c-3.22,2.7-7.2,4.13-11.4,4.13c-9.97,0-18.07-8.4-18.07-18.67
		c0-10.35,8.1-18.67,18.07-18.67c4.2,0,8.17,1.43,11.4,4.13l3.9,3.22v-7.42h3.23v37.42H1281.12z M1280.74,418.35v-0.3
		c-1.05-7.87-7.2-13.35-14.92-13.35c-8.47,0-14.92,6.67-14.92,15.37s6.45,15.3,14.92,15.3c7.72,0,13.87-5.47,14.92-13.27V418.35z"/>
	<path class="st10" d="M1304.74,403.8c-6.75,0.6-11.92,6.45-13.27,13.27v21.67h-2.55V401.1h2.55v8.77c0,0,1.58-2.62,3.9-4.8
		c2.62-2.4,5.85-3.6,9.37-3.97V403.8z"/>
	<path class="st10" d="M1340.59,421.12h-34.05c1.35,9.9,8.77,14.7,15.67,14.7c2.77,0,5.7-0.98,8.1-2.33l4.5,0.08
		c-3.38,3.23-7.88,5.1-12.6,5.1c-10.13,0-18.38-8.47-18.38-18.97c0-10.42,8.25-18.97,18.38-18.97
		C1332.57,400.72,1340.37,409.65,1340.59,421.12z M1337.59,418.27c-1.95-9.82-8.47-14.77-15.37-14.77c-6.9,0-14.1,4.35-15.6,14.77
		H1337.59z"/>
	<path class="st10" d="M1382.82,438.67h-12.97v-52.5h12.97c14.25,0.23,25.87,11.92,25.87,26.17
		C1408.69,426.67,1397.07,438.52,1382.82,438.67z M1382.44,435.75c12.52,0,22.95-10.87,22.95-23.4c0-12.45-10.42-23.02-22.95-23.02
		h-9.52l0.08,46.42H1382.44z"/>
	<path class="st10" d="M1449.79,421.12h-34.05c1.35,9.9,8.77,14.7,15.67,14.7c2.77,0,5.7-0.98,8.1-2.33l4.5,0.08
		c-3.38,3.23-7.88,5.1-12.6,5.1c-10.13,0-18.38-8.47-18.38-18.97c0-10.42,8.25-18.97,18.38-18.97
		C1441.76,400.72,1449.56,409.65,1449.79,421.12z M1446.79,418.27c-1.95-9.82-8.47-14.77-15.37-14.77c-6.9,0-14.1,4.35-15.6,14.77
		H1446.79z"/>
	<path class="st10" d="M1478.59,400.95h3.22l-16.27,37.8l-16.27-37.8h3.08l13.2,30.07l13.27-30.07H1478.59z"/>
	<path class="st10" d="M1518.26,421.12h-34.05c1.35,9.9,8.77,14.7,15.67,14.7c2.77,0,5.7-0.98,8.1-2.33l4.5,0.08
		c-3.38,3.23-7.88,5.1-12.6,5.1c-10.13,0-18.38-8.47-18.38-18.97c0-10.42,8.25-18.97,18.38-18.97
		C1510.24,400.72,1518.04,409.65,1518.26,421.12z M1515.26,418.27c-1.95-9.82-8.47-14.77-15.37-14.77c-6.9,0-14.1,4.35-15.6,14.77
		H1515.26z"/>
	<path class="st10" d="M1526.22,382.27v56.4h-3.22v-56.4H1526.22z"/>
	<path class="st10" d="M1568.51,419.77c0,10.5-8.32,19.05-18.45,19.05c-10.2,0-18.52-8.55-18.52-19.05s8.33-19.05,18.52-19.05
		C1560.19,400.72,1568.51,409.27,1568.51,419.77z M1565.74,419.77c0-8.85-7.05-16.05-15.67-16.05c-8.7,0-15.75,7.2-15.75,16.05
		s7.05,16.05,15.75,16.05C1558.69,435.82,1565.74,428.62,1565.74,419.77z"/>
	<path class="st10" d="M1580.29,434.1l-3.75-3.15v27.3h-2.92v-56.4h2.92v7.2l3.75-3.15c3.22-2.63,7.05-4.05,11.1-4.05
		c9.67,0,17.63,8.17,17.63,18.15s-7.95,18.15-17.63,18.15C1587.34,438.15,1583.52,436.72,1580.29,434.1z M1576.77,418.05v3.9
		c0.97,7.65,7.13,12.75,14.62,12.75c8.25,0,14.55-6.3,14.55-14.7c0-8.4-6.3-14.92-14.55-14.92
		C1583.89,405.07,1577.74,410.4,1576.77,418.05z"/>
	<path class="st10" d="M1650.72,421.12h-34.05c1.35,9.9,8.77,14.7,15.67,14.7c2.77,0,5.7-0.98,8.1-2.33l4.5,0.08
		c-3.38,3.23-7.88,5.1-12.6,5.1c-10.13,0-18.38-8.47-18.38-18.97c0-10.42,8.25-18.97,18.38-18.97
		C1642.69,400.72,1650.49,409.65,1650.72,421.12z M1647.72,418.27c-1.95-9.82-8.47-14.77-15.37-14.77c-6.9,0-14.1,4.35-15.6,14.77
		H1647.72z"/>
	<path class="st10" d="M1671.49,403.8c-6.75,0.6-11.92,6.45-13.27,13.27v21.67h-2.55V401.1h2.55v8.77c0,0,1.58-2.62,3.9-4.8
		c2.62-2.4,5.85-3.6,9.37-3.97V403.8z"/>
</g>
<g>
	<rect x="2017.96" y="307.17" class="st9" width="2.6" height="2.6"/>
</g>
<g>
</g>
<g>
</g>
<g>
</g>
<g>
</g>
<g>
</g>
<g>
</g>
<g>
</g>
<g>
</g>
<g>
</g>
<g>
</g>
<g>
</g>
<g>
</g>
<g>
</g>
<g>
</g>
<g>
</g>
</svg>
